# xmcd
#
# Track frame offsets:
#  150
#  20939
#  44774
#  65360
#  90980
#  113991
#  129484
#  154271
#  190671
#  208676
#
# Disc length: 3121 seconds
#
# Revision: 0
# Processed by: cddbd v1.5PL3 Copyright (c) Steve Scherf et al.
# Submitted via: AltoMP3_Maker 3.0
#
DISCID=8c0c2f0a
DTITLE=Blues on First - Live At the Dead Goat Saloon
DYEAR=1900
DGENRE=
TTITLE0=T-bone Shuffle
TTITLE1=Teeny Weeny Bit
TTITLE2=Tore Down
TTITLE3=Nothin' But The Blues
TTITLE4=Linesome Whistle Blues
TTITLE5=Since I Met You Baby
TTITLE6=Dust My Broom
TTITLE7=The Sky is Cryin'
TTITLE8="Shuffleina"
TTITLE9=Cold Shot
EXTD=
EXTT0=
EXTT1=
EXTT2=
EXTT3=
EXTT4=
EXTT5=
EXTT6=
EXTT7=
EXTT8=
EXTT9=
PLAYORDER=
